<mxfile host="app.diagrams.net" agent="Mozilla/5.0 (Windows NT 10.0; Win64; x64) AppleWebKit/537.36 (KHTML, like Gecko) Chrome/131.0.0.0 Safari/537.36" version="24.7.12">
  <diagram name="Page-1" id="2-xjRGUdd84nB5lodAl4">
    <mxGraphModel dx="954" dy="658" grid="1" gridSize="10" guides="1" tooltips="1" connect="1" arrows="1" fold="1" page="1" pageScale="1" pageWidth="850" pageHeight="1100" math="0" shadow="0">
      <root>
        <mxCell id="0" />
        <mxCell id="1" parent="0" />
        <mxCell id="ZXlROGH-PEbWz1IkiZnn-2" value="start of new school term" style="ellipse;whiteSpace=wrap;html=1;" parent="1" vertex="1">
          <mxGeometry x="80" y="80" width="120" height="80" as="geometry" />
        </mxCell>
        <mxCell id="ZXlROGH-PEbWz1IkiZnn-3" value="higher ranks draft part one orders (timetable)" style="rounded=1;whiteSpace=wrap;html=1;" parent="1" vertex="1">
          <mxGeometry x="80" y="200" width="120" height="60" as="geometry" />
        </mxCell>
        <mxCell id="ZXlROGH-PEbWz1IkiZnn-4" value="timetable approved by adults" style="rhombus;whiteSpace=wrap;html=1;" parent="1" vertex="1">
          <mxGeometry x="100" y="310" width="80" height="80" as="geometry" />
        </mxCell>
        <mxCell id="ZXlROGH-PEbWz1IkiZnn-5" value="" style="endArrow=classic;html=1;rounded=0;exitX=0.5;exitY=1;exitDx=0;exitDy=0;entryX=0.5;entryY=0;entryDx=0;entryDy=0;" parent="1" source="ZXlROGH-PEbWz1IkiZnn-2" target="ZXlROGH-PEbWz1IkiZnn-3" edge="1">
          <mxGeometry width="50" height="50" relative="1" as="geometry">
            <mxPoint x="400" y="370" as="sourcePoint" />
            <mxPoint x="450" y="320" as="targetPoint" />
          </mxGeometry>
        </mxCell>
        <mxCell id="ZXlROGH-PEbWz1IkiZnn-6" value="" style="endArrow=classic;html=1;rounded=0;exitX=0.5;exitY=1;exitDx=0;exitDy=0;entryX=0.5;entryY=0;entryDx=0;entryDy=0;" parent="1" source="ZXlROGH-PEbWz1IkiZnn-3" target="ZXlROGH-PEbWz1IkiZnn-4" edge="1">
          <mxGeometry width="50" height="50" relative="1" as="geometry">
            <mxPoint x="400" y="370" as="sourcePoint" />
            <mxPoint x="450" y="320" as="targetPoint" />
          </mxGeometry>
        </mxCell>
        <mxCell id="ZXlROGH-PEbWz1IkiZnn-9" value="" style="endArrow=none;html=1;rounded=0;exitX=1;exitY=0.5;exitDx=0;exitDy=0;" parent="1" source="ZXlROGH-PEbWz1IkiZnn-4" edge="1">
          <mxGeometry width="50" height="50" relative="1" as="geometry">
            <mxPoint x="400" y="370" as="sourcePoint" />
            <mxPoint x="240" y="350" as="targetPoint" />
          </mxGeometry>
        </mxCell>
        <mxCell id="ZXlROGH-PEbWz1IkiZnn-10" value="no" style="endArrow=none;html=1;rounded=0;" parent="1" edge="1">
          <mxGeometry width="50" height="50" relative="1" as="geometry">
            <mxPoint x="240" y="350" as="sourcePoint" />
            <mxPoint x="240" y="230" as="targetPoint" />
          </mxGeometry>
        </mxCell>
        <mxCell id="ZXlROGH-PEbWz1IkiZnn-11" value="" style="endArrow=classic;html=1;rounded=0;entryX=1;entryY=0.5;entryDx=0;entryDy=0;" parent="1" target="ZXlROGH-PEbWz1IkiZnn-3" edge="1">
          <mxGeometry width="50" height="50" relative="1" as="geometry">
            <mxPoint x="240" y="230" as="sourcePoint" />
            <mxPoint x="450" y="320" as="targetPoint" />
          </mxGeometry>
        </mxCell>
        <mxCell id="ZXlROGH-PEbWz1IkiZnn-12" value="yes" style="endArrow=classic;html=1;rounded=0;exitX=0.5;exitY=1;exitDx=0;exitDy=0;" parent="1" source="ZXlROGH-PEbWz1IkiZnn-4" edge="1">
          <mxGeometry width="50" height="50" relative="1" as="geometry">
            <mxPoint x="400" y="370" as="sourcePoint" />
            <mxPoint x="140" y="450" as="targetPoint" />
          </mxGeometry>
        </mxCell>
        <mxCell id="ZXlROGH-PEbWz1IkiZnn-26" style="edgeStyle=orthogonalEdgeStyle;rounded=0;orthogonalLoop=1;jettySize=auto;html=1;exitX=1;exitY=0.5;exitDx=0;exitDy=0;entryX=0;entryY=0.5;entryDx=0;entryDy=0;" parent="1" source="ZXlROGH-PEbWz1IkiZnn-14" target="ZXlROGH-PEbWz1IkiZnn-15" edge="1">
          <mxGeometry relative="1" as="geometry">
            <Array as="points">
              <mxPoint x="270" y="480" />
              <mxPoint x="270" y="110" />
            </Array>
          </mxGeometry>
        </mxCell>
        <mxCell id="ZXlROGH-PEbWz1IkiZnn-14" value="send out part one orders with lesson names and dates" style="rounded=1;whiteSpace=wrap;html=1;" parent="1" vertex="1">
          <mxGeometry x="80" y="450" width="120" height="60" as="geometry" />
        </mxCell>
        <mxCell id="ZXlROGH-PEbWz1IkiZnn-15" value="designated cadets write up lesson plans for the week ahead to be approved by staff" style="rounded=1;whiteSpace=wrap;html=1;" parent="1" vertex="1">
          <mxGeometry x="300" y="80" width="120" height="60" as="geometry" />
        </mxCell>
        <mxCell id="ZXlROGH-PEbWz1IkiZnn-16" value="lesson plan approved?" style="rhombus;whiteSpace=wrap;html=1;" parent="1" vertex="1">
          <mxGeometry x="320" y="180" width="80" height="80" as="geometry" />
        </mxCell>
        <mxCell id="ZXlROGH-PEbWz1IkiZnn-17" value="" style="endArrow=classic;html=1;rounded=0;exitX=0.5;exitY=1;exitDx=0;exitDy=0;entryX=0.5;entryY=0;entryDx=0;entryDy=0;" parent="1" source="ZXlROGH-PEbWz1IkiZnn-15" target="ZXlROGH-PEbWz1IkiZnn-16" edge="1">
          <mxGeometry width="50" height="50" relative="1" as="geometry">
            <mxPoint x="400" y="370" as="sourcePoint" />
            <mxPoint x="450" y="320" as="targetPoint" />
          </mxGeometry>
        </mxCell>
        <mxCell id="ZXlROGH-PEbWz1IkiZnn-19" value="yes" style="endArrow=classic;html=1;rounded=0;exitX=0.5;exitY=1;exitDx=0;exitDy=0;entryX=0.5;entryY=0;entryDx=0;entryDy=0;" parent="1" source="ZXlROGH-PEbWz1IkiZnn-16" target="ZXlROGH-PEbWz1IkiZnn-18" edge="1">
          <mxGeometry width="50" height="50" relative="1" as="geometry">
            <mxPoint x="400" y="370" as="sourcePoint" />
            <mxPoint x="590" y="280" as="targetPoint" />
          </mxGeometry>
        </mxCell>
        <mxCell id="ZXlROGH-PEbWz1IkiZnn-20" value="" style="endArrow=classic;html=1;rounded=0;entryX=1;entryY=0.5;entryDx=0;entryDy=0;" parent="1" target="ZXlROGH-PEbWz1IkiZnn-15" edge="1">
          <mxGeometry width="50" height="50" relative="1" as="geometry">
            <mxPoint x="450" y="110" as="sourcePoint" />
            <mxPoint x="760" y="290" as="targetPoint" />
          </mxGeometry>
        </mxCell>
        <mxCell id="ZXlROGH-PEbWz1IkiZnn-21" value="" style="endArrow=classic;html=1;rounded=0;" parent="1" target="ZXlROGH-PEbWz1IkiZnn-18" edge="1">
          <mxGeometry width="50" height="50" relative="1" as="geometry">
            <mxPoint x="400" y="370" as="sourcePoint" />
            <mxPoint x="450" y="320" as="targetPoint" />
          </mxGeometry>
        </mxCell>
        <mxCell id="ZXlROGH-PEbWz1IkiZnn-29" style="edgeStyle=orthogonalEdgeStyle;rounded=0;orthogonalLoop=1;jettySize=auto;html=1;exitX=0.5;exitY=1;exitDx=0;exitDy=0;entryX=0.5;entryY=0;entryDx=0;entryDy=0;" parent="1" source="ZXlROGH-PEbWz1IkiZnn-18" edge="1">
          <mxGeometry relative="1" as="geometry">
            <mxPoint x="360" y="440" as="targetPoint" />
          </mxGeometry>
        </mxCell>
        <mxCell id="ZXlROGH-PEbWz1IkiZnn-18" value="teach lesson" style="rounded=1;whiteSpace=wrap;html=1;" parent="1" vertex="1">
          <mxGeometry x="300" y="320" width="120" height="60" as="geometry" />
        </mxCell>
        <mxCell id="ZXlROGH-PEbWz1IkiZnn-24" value="" style="endArrow=none;html=1;rounded=0;exitX=1;exitY=0.5;exitDx=0;exitDy=0;" parent="1" source="ZXlROGH-PEbWz1IkiZnn-16" edge="1">
          <mxGeometry width="50" height="50" relative="1" as="geometry">
            <mxPoint x="400" y="370" as="sourcePoint" />
            <mxPoint x="450" y="220" as="targetPoint" />
          </mxGeometry>
        </mxCell>
        <mxCell id="ZXlROGH-PEbWz1IkiZnn-25" value="no" style="endArrow=none;html=1;rounded=0;" parent="1" edge="1">
          <mxGeometry width="50" height="50" relative="1" as="geometry">
            <mxPoint x="450" y="220" as="sourcePoint" />
            <mxPoint x="450" y="110" as="targetPoint" />
          </mxGeometry>
        </mxCell>
        <mxCell id="ZXlROGH-PEbWz1IkiZnn-32" value="yes" style="edgeStyle=orthogonalEdgeStyle;rounded=0;orthogonalLoop=1;jettySize=auto;html=1;exitX=0.5;exitY=1;exitDx=0;exitDy=0;" parent="1" source="ZXlROGH-PEbWz1IkiZnn-30" target="ZXlROGH-PEbWz1IkiZnn-31" edge="1">
          <mxGeometry relative="1" as="geometry" />
        </mxCell>
        <mxCell id="ZXlROGH-PEbWz1IkiZnn-33" value="no" style="edgeStyle=orthogonalEdgeStyle;rounded=0;orthogonalLoop=1;jettySize=auto;html=1;exitX=1;exitY=0.5;exitDx=0;exitDy=0;entryX=1;entryY=0;entryDx=0;entryDy=0;" parent="1" source="ZXlROGH-PEbWz1IkiZnn-30" target="ZXlROGH-PEbWz1IkiZnn-15" edge="1">
          <mxGeometry relative="1" as="geometry">
            <Array as="points">
              <mxPoint x="470" y="480" />
              <mxPoint x="470" y="110" />
              <mxPoint x="420" y="110" />
            </Array>
          </mxGeometry>
        </mxCell>
        <mxCell id="ZXlROGH-PEbWz1IkiZnn-30" value="does the lesson need revisal?" style="rhombus;whiteSpace=wrap;html=1;" parent="1" vertex="1">
          <mxGeometry x="320" y="440" width="80" height="80" as="geometry" />
        </mxCell>
        <mxCell id="ZXlROGH-PEbWz1IkiZnn-35" style="edgeStyle=orthogonalEdgeStyle;rounded=0;orthogonalLoop=1;jettySize=auto;html=1;exitX=1;exitY=0.5;exitDx=0;exitDy=0;entryX=0;entryY=0.5;entryDx=0;entryDy=0;" parent="1" source="ZXlROGH-PEbWz1IkiZnn-31" target="ZXlROGH-PEbWz1IkiZnn-34" edge="1">
          <mxGeometry relative="1" as="geometry" />
        </mxCell>
        <mxCell id="ZXlROGH-PEbWz1IkiZnn-31" value="discus with seniors modifying the timetable" style="rounded=1;whiteSpace=wrap;html=1;" parent="1" vertex="1">
          <mxGeometry x="80" y="560" width="120" height="60" as="geometry" />
        </mxCell>
        <mxCell id="ZXlROGH-PEbWz1IkiZnn-36" value="no" style="edgeStyle=orthogonalEdgeStyle;rounded=0;orthogonalLoop=1;jettySize=auto;html=1;exitX=1;exitY=0.5;exitDx=0;exitDy=0;" parent="1" source="ZXlROGH-PEbWz1IkiZnn-34" edge="1">
          <mxGeometry relative="1" as="geometry">
            <mxPoint x="470" y="480" as="targetPoint" />
          </mxGeometry>
        </mxCell>
        <mxCell id="ZXlROGH-PEbWz1IkiZnn-39" value="yes" style="edgeStyle=orthogonalEdgeStyle;rounded=0;orthogonalLoop=1;jettySize=auto;html=1;exitX=0.5;exitY=1;exitDx=0;exitDy=0;entryX=0.5;entryY=0;entryDx=0;entryDy=0;" parent="1" source="ZXlROGH-PEbWz1IkiZnn-34" target="ZXlROGH-PEbWz1IkiZnn-38" edge="1">
          <mxGeometry relative="1" as="geometry" />
        </mxCell>
        <mxCell id="ZXlROGH-PEbWz1IkiZnn-34" value="is it possible to modify?" style="rhombus;whiteSpace=wrap;html=1;" parent="1" vertex="1">
          <mxGeometry x="320" y="550" width="80" height="80" as="geometry" />
        </mxCell>
        <mxCell id="ZXlROGH-PEbWz1IkiZnn-40" value="no" style="edgeStyle=orthogonalEdgeStyle;rounded=0;orthogonalLoop=1;jettySize=auto;html=1;exitX=1;exitY=0.5;exitDx=0;exitDy=0;" parent="1" source="ZXlROGH-PEbWz1IkiZnn-38" edge="1">
          <mxGeometry relative="1" as="geometry">
            <mxPoint x="470" y="590" as="targetPoint" />
          </mxGeometry>
        </mxCell>
        <mxCell id="ZXlROGH-PEbWz1IkiZnn-42" value="yes" style="edgeStyle=orthogonalEdgeStyle;rounded=0;orthogonalLoop=1;jettySize=auto;html=1;" parent="1" source="ZXlROGH-PEbWz1IkiZnn-38" target="ZXlROGH-PEbWz1IkiZnn-41" edge="1">
          <mxGeometry relative="1" as="geometry" />
        </mxCell>
        <mxCell id="ZXlROGH-PEbWz1IkiZnn-38" value="does the SSI agree?" style="rhombus;whiteSpace=wrap;html=1;" parent="1" vertex="1">
          <mxGeometry x="320" y="670" width="80" height="80" as="geometry" />
        </mxCell>
        <mxCell id="ZXlROGH-PEbWz1IkiZnn-48" style="edgeStyle=orthogonalEdgeStyle;rounded=0;orthogonalLoop=1;jettySize=auto;html=1;entryX=0;entryY=0.5;entryDx=0;entryDy=0;" parent="1" source="ZXlROGH-PEbWz1IkiZnn-41" target="ZXlROGH-PEbWz1IkiZnn-44" edge="1">
          <mxGeometry relative="1" as="geometry" />
        </mxCell>
        <mxCell id="ZXlROGH-PEbWz1IkiZnn-41" value="post the modified schedule on the senior WhatsApp group" style="rounded=1;whiteSpace=wrap;html=1;" parent="1" vertex="1">
          <mxGeometry x="300" y="780" width="120" height="60" as="geometry" />
        </mxCell>
        <mxCell id="ZXlROGH-PEbWz1IkiZnn-44" value="designated cadets write up lesson plans for the week ahead to be approved by staff" style="rounded=1;whiteSpace=wrap;html=1;" parent="1" vertex="1">
          <mxGeometry x="600" y="70" width="120" height="60" as="geometry" />
        </mxCell>
        <mxCell id="ZXlROGH-PEbWz1IkiZnn-50" value="no" style="edgeStyle=orthogonalEdgeStyle;rounded=0;orthogonalLoop=1;jettySize=auto;html=1;entryX=1;entryY=0.25;entryDx=0;entryDy=0;" parent="1" source="ZXlROGH-PEbWz1IkiZnn-45" target="ZXlROGH-PEbWz1IkiZnn-44" edge="1">
          <mxGeometry relative="1" as="geometry">
            <mxPoint x="760" y="90" as="targetPoint" />
            <Array as="points">
              <mxPoint x="740" y="210" />
              <mxPoint x="740" y="85" />
            </Array>
          </mxGeometry>
        </mxCell>
        <mxCell id="ZXlROGH-PEbWz1IkiZnn-51" value="yes" style="edgeStyle=orthogonalEdgeStyle;rounded=0;orthogonalLoop=1;jettySize=auto;html=1;entryX=0.5;entryY=0;entryDx=0;entryDy=0;" parent="1" source="ZXlROGH-PEbWz1IkiZnn-45" target="ZXlROGH-PEbWz1IkiZnn-46" edge="1">
          <mxGeometry relative="1" as="geometry" />
        </mxCell>
        <mxCell id="ZXlROGH-PEbWz1IkiZnn-45" value="lesson plan approved?" style="rhombus;whiteSpace=wrap;html=1;" parent="1" vertex="1">
          <mxGeometry x="620" y="170" width="80" height="80" as="geometry" />
        </mxCell>
        <mxCell id="ZXlROGH-PEbWz1IkiZnn-52" style="edgeStyle=orthogonalEdgeStyle;rounded=0;orthogonalLoop=1;jettySize=auto;html=1;" parent="1" source="ZXlROGH-PEbWz1IkiZnn-46" target="ZXlROGH-PEbWz1IkiZnn-47" edge="1">
          <mxGeometry relative="1" as="geometry" />
        </mxCell>
        <mxCell id="ZXlROGH-PEbWz1IkiZnn-46" value="teach lesson" style="rounded=1;whiteSpace=wrap;html=1;" parent="1" vertex="1">
          <mxGeometry x="600" y="310" width="120" height="60" as="geometry" />
        </mxCell>
        <mxCell id="ZXlROGH-PEbWz1IkiZnn-53" value="no" style="edgeStyle=orthogonalEdgeStyle;rounded=0;orthogonalLoop=1;jettySize=auto;html=1;" parent="1" source="ZXlROGH-PEbWz1IkiZnn-47" edge="1">
          <mxGeometry relative="1" as="geometry">
            <mxPoint x="740" y="210" as="targetPoint" />
          </mxGeometry>
        </mxCell>
        <mxCell id="ZXlROGH-PEbWz1IkiZnn-54" value="yes" style="edgeStyle=orthogonalEdgeStyle;rounded=0;orthogonalLoop=1;jettySize=auto;html=1;entryX=0.5;entryY=1;entryDx=0;entryDy=0;" parent="1" source="ZXlROGH-PEbWz1IkiZnn-47" target="ZXlROGH-PEbWz1IkiZnn-31" edge="1">
          <mxGeometry relative="1" as="geometry">
            <Array as="points">
              <mxPoint x="530" y="470" />
              <mxPoint x="530" y="860" />
              <mxPoint x="140" y="860" />
            </Array>
          </mxGeometry>
        </mxCell>
        <mxCell id="ZXlROGH-PEbWz1IkiZnn-47" value="does the lesson need revisal?" style="rhombus;whiteSpace=wrap;html=1;" parent="1" vertex="1">
          <mxGeometry x="620" y="430" width="80" height="80" as="geometry" />
        </mxCell>
        <mxCell id="ZXlROGH-PEbWz1IkiZnn-49" style="edgeStyle=orthogonalEdgeStyle;rounded=0;orthogonalLoop=1;jettySize=auto;html=1;exitX=0.5;exitY=1;exitDx=0;exitDy=0;entryX=0.5;entryY=0.119;entryDx=0;entryDy=0;entryPerimeter=0;" parent="1" source="ZXlROGH-PEbWz1IkiZnn-44" target="ZXlROGH-PEbWz1IkiZnn-45" edge="1">
          <mxGeometry relative="1" as="geometry" />
        </mxCell>
      </root>
    </mxGraphModel>
  </diagram>
</mxfile>
